<svg xmlns="http://www.w3.org/2000/svg" xmlns:xlink="http://www.w3.org/1999/xlink" width="42.86" height="59.69" viewBox="0 0 42.86 59.69">
  <defs>
    <clipPath id="clip-blueMarker">
      <rect width="42.86" height="59.69"/>
    </clipPath>
  </defs>
  <g id="blueMarker" clip-path="url(#clip-blueMarker)">
    <path id="Union_4" data-name="Union 4" d="M-2964.84,2234.394l-.14-.344-.15-.344-.14-.334-.15-.344-.15-.333-.159-.335-.161-.335-.16-.334-.17-.324-.17-.334-.17-.326-.18-.325-.18-.324-.18-.325-.19-.314-.189-.315-.19-.315-.2-.314-.2-.315-.2-.314-.209-.306-.209-.3-.211-.305-.22-.3-.22-.294-.2-.266-.19-.266-.2-.265-.2-.266-.2-.275-.2-.266-.2-.276-.2-.265-.2-.275-.21-.275-.2-.275-.2-.275-.21-.276-.209-.275-.2-.276-.209-.285-.211-.276-.209-.285-.209-.285-.21-.285-.21-.275-.221-.286-.209-.295-.22-.285-.21-.285-.19-.256-.179-.246-.19-.246-.2-.256-.19-.256-.189-.256-.2-.255-.2-.256-.2-.256-.2-.256-.2-.256-.21-.266-.2-.256-.21-.265-.21-.266-.21-.266-.21-.265-.22-.266-.21-.266-.22-.265-.22-.275-.219-.266-.23-.275-.219-.266-.231-.275-.32-.4-.319-.413-.311-.413-.3-.423-.29-.423-.28-.433-.26-.443-.26-.442-.25-.452-.239-.452-.23-.452-.22-.472-.21-.462-.2-.473-.18-.481-.18-.473-.17-.491-.16-.482-.14-.491-.141-.5-.119-.491-.11-.5-.1-.512-.1-.5-.079-.511-.191-1.308v-1.013l.05-1.328.12-1.308.21-1.279.28-1.249.36-1.22.43-1.2.5-1.15.57-1.122.63-1.082.7-1.042.75-.993.82-.954.859-.9.919-.846.98-.8,1.011-.737,1.069-.679,1.1-.62,1.149-.56,1.181-.491,1.22-.423,1.25-.344,1.28-.275,1.31-.207,1.33-.118,1.35-.039,1.36.039,1.329.118,1.311.207,1.279.275,1.251.354,1.21.413,1.19.491,1.14.56,1.11.62,1.061.679,1.02.737.97.8.919.856.871.9.81.954.759.993.7,1.042.63,1.082.57,1.122.5,1.16.429,1.189.36,1.22.281,1.249.2,1.279.129,1.308.041,1.328v1.013l-.19,1.308-.08.511-.09.511-.1.5-.121.5-.119.491-.141.5-.14.491-.16.482-.16.491-.18.482-.19.472-.2.473-.21.472-.221.462-.22.452-.24.452-.25.452-.26.442-.27.443-.28.433-.29.423-.3.423-.3.413-.319.413-.331.4-.229.275-.22.266-.22.275-.221.266-.22.275-.22.265-.219.266-.21.266-.221.265-.209.266-.21.266-.21.265-.2.256-.21.266-.2.256-.2.256-.2.256-.2.266-.19.245-.2.256-.19.256-.19.256-.189.246-.19.256-.19.246-.21.285-.22.285-.209.295-.21.286-.22.285-.209.275-.211.285-.209.285-.21.276-.2.285-.209.276-.209.275-.2.276-.21.275-.2.275-.21.275-.2.275-.2.276-.2.265-.2.266-.2.275-.2.266-.2.265-.189.266-.2.266-.221.294-.21.3-.22.305-.209.3-.2.306-.209.314-.2.315-.19.314-.2.315-.19.315-.18.314-.189.325-.18.324-.17.325-.18.326-.17.334-.16.324-.17.334-.16.335-.15.335-.16.333-.15.344-.139.334-.151.344-.129.344-1.28,3.2Z" transform="translate(2985.224 -2177.658)" fill="#2f73e9" opacity="0.9"/>
  </g>
</svg>