<svg xmlns="http://www.w3.org/2000/svg" xmlns:xlink="http://www.w3.org/1999/xlink" width="30" height="34.44" viewBox="0 0 30 34.44">
  <defs>
    <clipPath id="clip-beerIcon">
      <rect width="30" height="34.44"/>
    </clipPath>
  </defs>
  <g id="beerIcon" clip-path="url(#clip-beerIcon)">
    <g id="beer">
      <g id="Groupe_476" data-name="Groupe 476">
        <g id="Groupe_475" data-name="Groupe 475">
          <path id="Tracé_175" data-name="Tracé 175" d="M50.3,11.391H46.2V8.978a1.5,1.5,0,0,0-.233-.8,3.418,3.418,0,0,0,.641-1.983,3.513,3.513,0,0,0-4.905-3.178,4.067,4.067,0,0,0-5.1-1.115A4.074,4.074,0,0,0,29.128,3.49,3.513,3.513,0,0,0,24.39,6.733v7.121a2.522,2.522,0,0,0,2.187,2.478V30.91a3.236,3.236,0,0,0,3.52,3.52H42.684a3.236,3.236,0,0,0,3.52-3.52v-.394h4.1c2.558,0,4.089-1.91,4.089-5.1V16.493C54.368,13.286,52.838,11.391,50.3,11.391ZM43.22,32.98a1.818,1.818,0,0,1-.535,0H30.1a1.815,1.815,0,0,1-2.063-2.063V16.107a2.507,2.507,0,0,0,1.458-2.252V12.178a3.644,3.644,0,0,0,3.52-.656,4.074,4.074,0,0,0,7.551-2.055V8.92h4.125a.058.058,0,0,1,.058.058h0V30.917A1.815,1.815,0,0,1,43.22,32.98ZM44.689,7.462H39.805a.805.805,0,0,0-.729.875V8.41a3.524,3.524,0,0,1,0,.641v.415a2.609,2.609,0,0,1-5.168.459.715.715,0,0,0-1.356-.175,2.077,2.077,0,0,1-3.294.612.729.729,0,0,0-1.232.532v2.959a1.093,1.093,0,1,1-2.187,0V6.733a2.063,2.063,0,0,1,3.586-1.327.729.729,0,0,0,1.239-.729,2.462,2.462,0,0,1-.117-.729,2.609,2.609,0,0,1,5.1-.794.729.729,0,0,0,1.166.321,2.61,2.61,0,0,1,4.009.845.729.729,0,0,0,1.079.262,2.07,2.07,0,0,1,1.21-.394,2.034,2.034,0,0,1,2.055,2A1.969,1.969,0,0,1,44.689,7.462Zm8.229,17.959c0,1.363-.343,3.644-2.631,3.644H46.2v-2.6h1.866c1.567,0,2.544-1.188,2.544-3.1V18.534c0-1.91-.977-3.1-2.544-3.1H46.2V12.849h4.1c2.289,0,2.631,2.289,2.631,3.644ZM46.2,25.013l.007-8.112h1.866c.729,0,1.086.554,1.086,1.64v4.832c0,1.086-.364,1.64-1.086,1.64Z" transform="translate(-24.39 0)" fill="#fff"/>
        </g>
      </g>
      <g id="Groupe_478" data-name="Groupe 478" transform="translate(6.079 14.962)">
        <g id="Groupe_477" data-name="Groupe 477">
          <path id="Tracé_176" data-name="Tracé 176" d="M91.839,164.226a.729.729,0,0,0-.729.729V176.93a.729.729,0,0,0,1.458,0V164.955A.729.729,0,0,0,91.839,164.226Z" transform="translate(-91.11 -164.226)" fill="#fff"/>
        </g>
      </g>
      <g id="Groupe_480" data-name="Groupe 480" transform="translate(9.541 14.962)">
        <g id="Groupe_479" data-name="Groupe 479">
          <path id="Tracé_177" data-name="Tracé 177" d="M129.839,164.226a.729.729,0,0,0-.729.729V176.93a.729.729,0,0,0,1.458,0V164.955A.729.729,0,0,0,129.839,164.226Z" transform="translate(-129.11 -164.226)" fill="#fff"/>
        </g>
      </g>
      <g id="Groupe_482" data-name="Groupe 482" transform="translate(13.003 14.962)">
        <g id="Groupe_481" data-name="Groupe 481" transform="translate(0)">
          <path id="Tracé_178" data-name="Tracé 178" d="M167.839,164.226a.729.729,0,0,0-.729.729V176.93a.729.729,0,0,0,1.458,0V164.955A.729.729,0,0,0,167.839,164.226Z" transform="translate(-167.11 -164.226)" fill="#fff"/>
        </g>
      </g>
      <g id="Groupe_484" data-name="Groupe 484" transform="translate(16.436 14.962)">
        <g id="Groupe_483" data-name="Groupe 483" transform="translate(0)">
          <path id="Tracé_179" data-name="Tracé 179" d="M205.519,164.226a.729.729,0,0,0-.729.729V176.93a.729.729,0,0,0,1.458,0V164.955A.729.729,0,0,0,205.519,164.226Z" transform="translate(-204.79 -164.226)" fill="#fff"/>
        </g>
      </g>
    </g>
  </g>
</svg>
